<?xml version="1.0" encoding="utf-8"?>
<!-- Generator: Adobe Illustrator 25.2.0, SVG Export Plug-In . SVG Version: 6.00 Build 0)  -->
<svg version="1.1" id="Layer_2" xmlns="http://www.w3.org/2000/svg" xmlns:xlink="http://www.w3.org/1999/xlink" x="0px" y="0px"
	 viewBox="0 0 1920 1080" style="enable-background:new 0 0 1920 1080;" xml:space="preserve">
<style type="text/css">
	.st0{fill:#282626;stroke:#000000;stroke-miterlimit:10;}
	.st1{fill:#EAACAC;stroke:#000000;stroke-miterlimit:10;}
	.st2{fill:#D0E6EF;}
	.st3{fill:#FFFFFF;}
	.st4{fill:#2C83D1;}
	.st5{fill:#CFD6DB;}
	.st6{fill:#D0E6EF;stroke:#000000;stroke-miterlimit:10;}
	.st7{fill:#D0E6EF;stroke:#000000;stroke-width:7;stroke-miterlimit:10;}
	.st8{fill:#33BDE2;}
	.st9{font-family:'MyriadPro-Regular';}
	.st10{font-size:150.8386px;}
	.st11{font-size:109.4406px;}
	.st12{fill:none;stroke:#005473;stroke-width:10;stroke-miterlimit:10;}
</style>
<path class="st0" d="M1348.5,313.5c2.72,0.16,6.09-8.24,8-13c1.69-4.22,2.55-8.03,3-11c-1.43-2.46-3.24-6.22-4.22-11.08
	c-0.66-3.3-2.28-12,2.22-20.92c0.47-0.93,2.73-5.29,7.47-9.35c1.46-1.25,4.72-3.82,9.53-5.65c10.13-3.85,20.06-1.75,26.66-0.3
	c0.81,0.18,1.29,0.3,1.34,0.3c7,3.67,14,7.33,21,11c3.17-2.05,13.19-7.97,26-6c3.83,0.59,14.28,2.2,19,10c5.42,8.95,2,23.94,2,24
	c2.88,1.41,6.37,3.76,7.95,7.67c2.45,6.09-1.8,10.82,1.05,16.33c1.77,3.41,5.9,6.44,9,6c3.46-0.49,8.89-5.76,12-37
	c-0.84-17.65-5.27-31.06-9-39c-5.16-11-10.73-22.87-23-29c-9.17-4.58-11.53-0.92-26-6c-15.07-5.29-15.93-11.06-25-11
	c-8.41,0.06-11.41,5.04-24,11c-13.97,6.61-18.43,2.81-27,8c-8.34,5.05-13.53,13.53-17,22
	C1335.19,265.39,1342.13,313.12,1348.5,313.5z"/>
<path class="st1" d="M1477.5,306.5c0.09-0.26,0.22-0.65,0.37-1.14c0,0,2.41-7.73,2.63-15.86c0.42-15.79-7-29-7-29
	c-3.45-6.14-8.42-14.99-18-19c-12.16-5.09-17.48,3.6-35,2c-18.16-1.66-19.59-11.64-36-12c-2.24-0.05-21.58-0.18-33,14
	c-7.61,9.45-4.92,23-1,49c0.55,3.67,3,19.03,3,19l0,0c0,0-8.13-1.85-12,1c-2.21,1.63-2.51,5.11-3,12c-0.47,6.51-0.85,11.91,1,19
	c0.27,1.05,1.62,6.03,5,12c3.98,7.03,6.89,8.52,11,14c5.88,7.84,3.83,9.97,10,22c4.62,9.02,5.52,7.32,14,21
	c8.69,14.02,8.47,16.97,14,21c7.5,5.48,15.89,5.86,19,6c2.83,0.13,12.64,0.58,21-5c10.66-7.11,5.82-15.26,19-35
	c7.49-11.22,10.97-11.46,16-22c2.08-4.36,3.52-8.58,8-13c4.71-4.64,7.15-3.96,11-8c3.65-3.83,4.76-8.55,7-18
	c2.67-11.29,3.95-17.03,1-22c-2.39-4.03-6.37-6.02-9-7"/>
<path class="st0" d="M1356.5,377.5c1.68-1.42,8.54,2.74,12,7c1.2,1.48,2.66,3.78,2.76,3.95c1.51,2.4,2.55,4.52,3.24,6.05
	c2.03,3.69,4.71,8.48,8,14c4.64,7.79,6.96,11.68,10,15c3.4,3.71,6.97,7.61,13,10c2.19,0.87,11.28,4.48,21,0
	c1.2-0.55,2.16-1.15,2.98-1.81c5.95-4.78,9.02-10.21,10.02-12.19c5.8-11.45,11.54-9.69,19-23c4.44-7.93,3.54-10.58,11-25
	c4.94-9.54,6.24-10.14,7-10c3.28,0.61,3.91,15.69,2,28c-1.76,11.32-5.55,19.6-9,27c-4.78,10.25-7.65,16.4-14,23
	c-10.58,11-22.77,14.84-27,16c-7.78,2.13-21.11,5.78-33-1c-8.7-4.96-12.77-13.31-17-22c-4.01-8.23-3.08-9.98-7-21
	C1363.86,390.04,1354.19,379.45,1356.5,377.5z"/>
<path class="st1" d="M1469.5,402.5c-2.73,4.65-6.77,11.27-12,19c-9.01,13.32-13.52,19.99-19,24c-8.8,6.45-25.32,13.24-37,7
	c-11.51-6.15-11.92-21.51-18-21c-4.04,0.34-7.45,7.41-8,13c-0.66,6.68,2.99,8.97,4,18c0.68,6.03-0.57,8.47-1,14
	c-0.8,10.22,2.18,18.02,6,28c6.35,16.6,12.67,33.13,23,34c5.55,0.47,10.7-4.36,21-14c6.05-5.66,9.87-10.48,15-17
	c9.16-11.65,13.75-17.47,18-26c5.86-11.75,2.72-11.54,10-28c5.09-11.5,7.9-14.5,8-22c0.1-7.95-2.92-15.35-4-18
	C1473.55,408.73,1471.27,405.03,1469.5,402.5z"/>
<path class="st2" d="M1473.5,426.5c5.57,5.38,14.22,12.9,26,20c11.82,7.13,23.04,11.18,45,19c20.53,7.31,24.21,7.69,40,14
	c17.78,7.11,26.77,10.77,32,16c12.58,12.59,16.89,31,19,40c1.84,7.85,1.38,9.99,4,19c4.45,15.28,7.56,15.29,9,25
	c1.89,12.79-2.76,17.83,2,25c3.68,5.56,7.92,4.71,9,9c1.95,7.76-11.34,12.8-11,23c0.22,6.73,6.08,6.69,9,15
	c4.14,11.8-5.76,17.31-6,36c-0.14,11.25,3.44,9.98,4,25c0.34,9.13-0.98,9.56-2,29c-0.78,14.81-0.31,20.21,0,23
	c1.07,9.75,3.23,15.8,4,19c2.35,9.73-0.3,25.35-23,51c-4.88-15.53-11.7-25.64-17-32c-5.09-6.11-7.26-6.9-18-19
	c-8.37-9.42-12.56-14.14-16-20c-6.96-11.85-4.86-15.33-11-21c-5.18-4.78-13.95-9.02-22-7c-6.71,1.69-6.08,6.01-13,8
	c-8.82,2.54-12.47-3.73-23-2c-7.67,1.26-6.96,4.79-14,6c-5.68,0.98-9.25-0.78-28-9c-15.82-6.93-19.46-8.39-21-9
	c-10.13-4-18.59-6.53-24-8c-19.03-82.73-21.2-147.33-12-172c5.41-14.5,13-25,13-25c4.96-4.26,10.92-10.04,16.87-17.56
	c0,0,6.78-8.58,12.13-18.44C1470.73,464.09,1473.07,433.12,1473.5,426.5z"/>
<path class="st3" d="M1423.5,519.5c-0.79,1.37-3.94,6.46-10,8c-8.15,2.07-14.88-3.99-16-5c-4.96-4.47-6.37-10.23-9-21
	c-2.29-9.36-1.7-12.43-5-18c-2.37-4-7.16-9.99-10-9c-2.76,0.96-1.02,7.57-3,22c-1.57,11.48-3.29,11.83-3,18
	c0.43,8.92,4.17,11.28,8,22c1.14,3.19,5.76,16.49,4,30c-1.55,11.93-6.45,11.5-13,28c-5.69,14.32-2.2,15.16-10,43
	c-3.29,11.75-4.93,17.62-7,22c-3.58,7.59-7.07,12.05-8,20c-0.63,5.37,0.19,9.93,1,13c3.05,1.41,7.91,3.6,14,6
	c13.61,5.37,20.35,6.71,32,11c8.97,3.3,12.29,6.36,23,10c6.51,2.21,9.76,3.32,11,3c15.2-3.94-9.85-71.43,8-135
	c2.57-9.16,10.12-32.81,0-56C1428.17,526.16,1425.45,522.11,1423.5,519.5z"/>
<path class="st2" d="M1372,434c-4.5,0.39-4.21,8.77-15,25c-3.29,4.95-6.89,10.37-13,16c-11.09,10.22-23.08,14.37-29,16
	c-12.11,3.33-12.38-0.13-21,3c-10.16,3.69-16.11,11.13-28,26c-8.75,10.94-13.12,16.41-16,24c-3.47,9.15-2.01,12.27-4,33
	c-2.21,22.98-4.11,20.23-5,37c-0.65,12.26,0.18,17.19-1,36c-0.53,8.36-0.74,8.17-1,14c-0.84,18.71-1.51,33.72,4,36
	c3.31,1.37,5.51-3.24,20-12c9.06-5.48,16.37-8.61,22-11c9.09-3.86,13.64-5.79,18-6c12.95-0.63,23.1,7.28,24,8
	c8.2,6.58,9.05,13.5,15,14c4.54,0.38,8.29-3.29,10-5c13.48-13.53,6.58-36.81,14-68c6.14-25.82,14.13-23.55,18-49
	c1.37-8.98,3.89-25.54,0-46c-3.32-17.45-8.51-23.07-6-36c2.36-12.17,8.26-13.9,9-25C1388.01,448.85,1378.25,433.46,1372,434z"/>
<path class="st1" d="M1596.04,868.44c-1.53-0.35-11.16-1.43-30.38-3.56c-24.65-2.74-25.85-2.86-29.37-3.56
	c-14.78-2.95-25.33-7.09-28.35-8.31c-13.77-5.56-23.37-11.78-25.32-13.06c-11.27-7.4-10.37-9.2-22.28-17.81
	c-18.18-13.15-29.37-15.53-29.37-22.56c0-5.34,6.45-6.34,8.1-15.44c0.84-4.61,0.49-11.55-3.04-15.44
	c-3.36-3.71-6.62-1.35-19.24-2.37c-10.55-0.86-21.27-3.56-21.27-3.56l-18.23-9.5c-0.02-0.01-12.96-5.33-27.34-7.12
	c-6.83-0.85-8.54-0.23-11.29-0.45c-2-0.16-3.38-0.61-3.89-0.74c-4.68-1.17-8.97,2.99-13.28,3.54c-5.22,0.67-11.55-5.88-24-19
	c-6.71-7.07-7.97-9.07-11.32-9.48c-7.64-0.93-15.63,7.72-17.21,9.5c-4.58,5.14-5.27,9.63-8.1,9.5c-4.01-0.19-8.1-9.49-8.1-9.5
	c5.95-6.47,10.41-14.99,17.21-20.19c5.49-4.19,10.18-5.77,10.13-5.94c-0.15-0.43-31.51,12.66-31.39,13.06
	c0.11,0.35,25.85-4.53,33.42-23.75c1.59-4.03,3.22-10.83,1.01-13.06c-2.37-2.4-9.54,0.14-14.18,5.94c-0.11,0.14-0.15,0.2-0.28,0.36
	c-0.72,0.93-16.18,20.9-22,17.45c-2.69-1.6-3.35-8.22-2.03-13.06c1.65-6.05,7.54-9.66,19.24-16.62c2.23-1.33,5.87-3.26,13.16-7.12
	c13.22-7.01,15.4-7.85,18.23-8.31c2.37-0.38,7.56-0.88,16.2,2.37c14.05,5.28,20.17,14.04,29.37,21.37
	c26.14,20.84,49.52,8.14,67.85,24.93c2.44,2.24,7.69,7.65,16.09,10.76c3.81,1.41,5.65,1.38,12.72,3.46
	c6.08,1.79,10.52,3.52,13.73,4.78c21.24,8.3,26.26,15.64,42.65,18.24c1.01,0.16,4,0.61,7.99,0.75
	c24.11,0.86,31.13-11.54,51.64-13.06c7.98-0.59,19.95-1.48,29.37,7.12c9.12,8.33,6.3,16.85,16.2,33.25
	c10.39,17.21,16.7,13.14,25.32,28.5c0.91,1.63,13,23.88,7.09,48.68c-1.27,5.33-4.39,18.41-13.16,22.56
	C1612.73,874.64,1609.37,871.54,1596.04,868.44z"/>
<path class="st4" d="M1453.62,786c1.29-3.79,2.32-8.92,0-13.01c-6.3-11.09-32.6-6.41-39.12-5.42
	c-24.06,3.65-66.88,0.75-149.08-26.01c-21.85-92.13-43.7-184.26-65.55-276.39c-60.62-0.72-121.24-1.45-181.86-2.17
	c18.33,84.18,36.65,168.36,54.98,252.55c55.79,19.14,121.74,37.6,196.66,50.94C1337.31,778.54,1399.29,784.09,1453.62,786z"/>
<path class="st1" d="M1143.5,729.18c-1.1,1.75-0.63,5.75-0.35,8.21c0.36,3.07,0.84,7.29,3.35,9.96c2.31,2.47,3.89,1.53,12,3.63
	c9.91,2.56,9.27,7.07,23,13.32c6.91,3.15,15.76,5.97,16,6.06c-1.34,8.16-2.42,21.71,2,36.34c1.31,4.35,3.28,10.65,8,16.96
	c7.84,10.46,17.57,13.31,22,14.53c5.02,1.38,11.52,3.18,19,0c6.08-2.59,10.02-7.28,12-9.69c2.22-2.7,5.18-6.3,7-12.11
	c1.95-6.23,3.51-17.9-2-24.22c-2.78-3.19-6.34-3.83-7.45-4.02c-6.43-1.06-11.08,3.57-11.55,2.81c-0.84-1.37,24.87-19.1,23-25.44
	c-1.05-3.57-10.2-1.46-21-1.21c-24.51,0.56-44.22-8.79-64-18.17C1164.12,736.48,1146.69,724.1,1143.5,729.18z"/>
<path class="st5" d="M1602,856.63c-11.61-16.17-30.23-3.14-69-9.74c-28.08-4.78-48.41-16.75-57-21.92
	c-21.07-12.66-36.29-27.83-46-38.97c3.64,11.17,8.21,29.03,8,51.14c-0.24,25.38-6.61,39.22,0,47.49c4.99,6.24,11.88,2.44,36,1.22
	c11.08-0.56,21.72,0.03,43,1.22c12.7,0.71,17.71,1.4,47,3.65c31.09,2.39,38.33,2.6,42-3.65
	C1610.39,879.59,1608.24,865.32,1602,856.63z"/>
<path class="st5" d="M1276,886c-10.41-11.89-6.18-32.43-4-43c2.67-12.93,6.38-14.77,5-23c-1.92-11.46-10.34-15.05-11-28
	c-0.21-4.02-0.49-9.59,3-13c4.21-4.12,10.22-1.5,29,1c0,0,0.53,0.07,33,3c0.02,0,9.59-0.91,12,2c3.96,4.8-13.73,17.24-16,38
	c-1.17,10.7,3.11,11.21,4,28c0.77,14.5,1.51,28.43-7,37c-9.52,9.59-24.41,8.1-26.61,7.87C1294.27,895.55,1283.32,894.36,1276,886z"
	/>
<path class="st3" d="M1343.49,787c-3.99,1.64-3.81,4.41-12.84,22c-4.73,9.21-5.25,9.37-5.83,12c-2.2,9.88,3.49,15.13,5.83,24
	c5.41,20.5-14.32,33.02-7,41c3.19,3.48,7.84,2.06,32.67,2c23.16-0.06,21.08,1.18,46.67,1c9.32-0.06,21.19-0.31,35.01-1
	c-1.78-4.58-3.82-11.07-4.67-19c-1-9.42,0.54-12.82,0-25c-0.4-9.13-1.32-8.23-2.33-20c-1.77-20.45,0.88-24.35-3.5-28
	c-3.87-3.23-7.42-1.42-30.34-2c-14.38-0.37-21.56-0.55-29.17-2C1352.33,789.01,1349.11,784.69,1343.49,787z"/>
<path class="st3" d="M1427,981"/>
<path class="st6" d="M1371.01,298.24c0.3-4.94,9.3-8.14,15.96-8.23c4.79-0.07,12.24,1.41,13.5,5.15
	c1.59,4.73-6.89,12.61-15.96,12.35C1377.9,307.31,1370.73,302.78,1371.01,298.24z"/>
<path class="st6" d="M1209.5,306.5"/>
<path class="st6" d="M1430.41,297.86c0.3-4.94,9.3-8.14,15.96-8.23c4.79-0.07,12.24,1.41,13.5,5.15
	c1.59,4.73-6.89,12.61-15.96,12.35C1437.3,306.93,1430.13,302.4,1430.41,297.86z"/>
<path class="st6" d="M1415.21,310.5c-1.97-0.13-3.56,1.5-3.88,1.83c-3.73,3.81-0.32,8.9-0.97,17.34
	c-0.75,9.62-6.07,14.61-3.88,16.43c1.63,1.35,4.7-1.31,10.67-1.83c5.57-0.48,10.34,1.19,13.58,2.74c-8.24-7.44-9.83-13.3-9.7-17.34
	c0.12-3.65,1.67-6.37,0.35-11.2C1421.25,317.98,1419.2,310.76,1415.21,310.5z"/>
<path class="st6" d="M1399.5,367.5c0.25-3.24,10.5-5.62,17-6c3.94-0.23,11,0,11,0l0,0c0.01,0,9.96,3.69,10,7
	c0.04,3.2-9.18,6.98-18,7C1409.64,375.52,1399.24,370.85,1399.5,367.5z"/>
<polyline class="st7" points="1364.5,287.5 1380.42,282.96 1393.45,282.96 1405.66,287.5 "/>
<polyline class="st7" points="1424.8,286.04 1440.72,281.5 1453.75,281.5 1465.96,286.04 "/>
<polyline class="st7" points="1397.8,357.04 1413.72,352.5 1426.75,352.5 1438.96,357.04 "/>
<path class="st8" d="M1786.5,924h-694c-5.25,0-9.5-4.25-9.5-9.5l0,0c0-5.25,4.25-9.5,9.5-15.5h694c5.25,6,9.5,10.25,9.5,15.5l0,0
	C1796,919.75,1791.75,924,1786.5,924z"/>
<path class="st8" d="M685.02,759.75"/>
<path class="st8" d="M1379.02,759.75"/>
<path class="st8" d="M1730.14,948h-574.28c-4.34,0-7.86-4.25-7.86-9.5l0,0c0-5.25,3.52-9.5,7.86-15.5h574.28
	c4.34,6,7.86,10.25,7.86,15.5l0,0C1738,943.75,1734.48,948,1730.14,948z"/>
<circle class="st8" cx="1784" cy="442" r="16"/>
<circle class="st8" cx="1032.02" cy="759.75" r="16"/>
<circle class="st8" cx="1032.02" cy="759.75" r="16"/>
<circle class="st8" cx="1032.02" cy="759.75" r="16"/>
<circle class="st8" cx="1063" cy="782" r="16"/>
<circle class="st8" cx="999" cy="889" r="16"/>
<circle class="st8" cx="1125" cy="235" r="16"/>
<circle class="st8" cx="1837" cy="760" r="16"/>
<circle class="st8" cx="1496" cy="86" r="16"/>
<text transform="matrix(0.53 0 0 1 102.812 194.2891)" class="st4 st9 st10">Cyber Services at the click</text>
<text transform="matrix(0.6947 0 0 1 105.3377 298.3475)" class="st4 st9 st11">of a button. </text>
<text transform="matrix(0.6947 0 0 1 105.7474 402.3474)" class="st9 st11">Get Services like: </text>
<text transform="matrix(0.6947 0 0 1 108.9365 510.3477)" class="st9 st11">-KRA Pin Registration </text>
<text transform="matrix(0.6947 0 0 1 105.552 601.3475)" class="st9 st11">-KRA Returns filling </text>
<text transform="matrix(0.6947 0 0 1 105.2403 690.3474)" class="st9 st11">-Wedding Card Designs </text>
<text transform="matrix(0.6947 0 0 1 107.8444 786.3473)" class="st9 st11">-Poster Designs </text>
<text transform="matrix(0.6947 0 0 1 110.1188 873.3472)" class="st9 st11">-Logo Designs </text>
<text transform="matrix(0.6947 0 0 1 112.7449 974.348)" class="st9 st11">And More</text>
<path class="st12" d="M865,349.53V748H632v257H125.53C106.46,1005,91,989.54,91,970.47V349.53c0-19.07,15.46-34.53,34.53-34.53
	h704.94C849.54,315,865,330.46,865,349.53z"/>
</svg>
